<?xml version="1.0" standalone="no"?>
<!DOCTYPE svg PUBLIC "-//W3C//DTD SVG 20010904//EN"
 "http://www.w3.org/TR/2001/REC-SVG-20010904/DTD/svg10.dtd">
<svg version="1.0" xmlns="http://www.w3.org/2000/svg"
 width="223.000000pt" height="175.000000pt" viewBox="0 0 223.000000 175.000000"
 preserveAspectRatio="xMidYMid meet">
<metadata>
Created by potrace 1.13, written by Peter Selinger 2001-2015
</metadata>
<g transform="translate(0.000000,175.000000) scale(0.100000,-0.100000)"
fill="#000000" stroke="none">
<path d="M1110 1698 c-61 -9 -178 -62 -187 -84 -3 -8 -12 -14 -19 -14 -28 0
-101 -80 -128 -139 -44 -99 -48 -142 -39 -446 4 -154 8 -289 8 -300 0 -14 -19
-27 -80 -54 -84 -36 -122 -41 -191 -22 -39 11 -42 13 -48 59 -3 26 -9 202 -13
390 -5 295 -9 346 -22 360 -9 8 -15 18 -13 21 8 15 -27 10 -43 -5 -14 -14 -16
-28 -11 -68 3 -28 9 -226 13 -439 3 -213 10 -390 15 -393 5 -3 15 -1 22 5 9 8
22 7 47 -6 19 -9 35 -17 37 -19 2 -1 -6 -20 -17 -43 -22 -42 -28 -125 -14
-205 6 -38 8 -40 112 -88 58 -27 147 -69 196 -94 130 -65 262 -87 480 -80 262
8 452 61 530 147 42 47 78 115 100 193 16 55 16 61 0 104 -26 71 -106 165
-171 199 l-23 13 -3 327 c-4 313 -5 331 -27 391 -25 67 -72 138 -106 156 -11
6 -24 17 -30 24 -11 14 -24 22 -101 63 -84 45 -181 62 -274 47z m180 -233 c90
-46 104 -171 27 -229 -66 -49 -143 -41 -196 19 -54 61 -38 163 32 205 38 24
97 26 137 5z"/>
<path d="M1156 1414 c-28 -29 -36 -87 -16 -125 17 -30 68 -52 106 -45 39 8 84
57 84 92 0 33 -25 81 -49 94 -38 20 -96 12 -125 -16z"/>
</g>
</svg>
